<?xml version="1.0" encoding="UTF-8"?>
<svg id="Layer_2" data-name="Layer 2" xmlns="http://www.w3.org/2000/svg" viewBox="0 0 878.26 311.53">
  <defs>
    <style>
      .cls-1 {
        fill: #171918;
      }
    </style>
  </defs>
  <g id="Layer_1-2" data-name="Layer 1">
    <g>
      <g>
        <path class="cls-1" d="M68.16,240.03s-.08-.04-.13-.06h-25.12l25.25.06Z"/>
        <path class="cls-1" d="M431.17,220.97c-7.14-33.9,15.45-106.13-30.18-121.47-24.05-8.09-54.89-1.68-65.7,18.14-.25-4.63-.33-14.88-.32-19.15l-4.3.08.41,47.6h23.07l-.02-3.09c-.57.08-1.14.11-1.71.12-.92-.12-1.89-.53-2.69-1.95-7.65-13.61,2.07-30.07,16-34.44,24.86-7.79,45.63,6.2,48.34,31.75.73,6.92,0,21.92,0,21.92l-82.15,7.05c-5.09,20.25-5.22,58.82,17.71,68.64,21.9,9.37,46.69-1.44,56.35-22.76l8.09-19.76v43.84h34.36v-3.55c-8.05,1.04-15.63-5.28-17.24-12.97ZM373.17,228.11c-28.8.45-28.47-32.62-25.4-53.34l66.27-9.54c-1.61,24.46-10.15,62.4-40.88,62.88Z"/>
        <path class="cls-1" d="M300.25,261.65s2.93,37.63-25.47,43c-12.68,2.2-24.53-2.39-26.82-21.85l.16-27.36.03-6.61-7.64-.04-26.72-.12-.02,3.5c1.71-.01,3.39.23,5,.7,5.57,1.65,10.16,6.06,11.23,12.14.45,2.55.76,5.36.95,8.37.06.91.08,1.83.06,2.75l-.03,2.1c-.05,10.58,3.54,16.33,11.11,23.74,2.9,2.84,6.26,5.17,10.03,6.68,10.33,4.13,23,3.65,33.33-.35,8.25-3.19,15.63-7.9,21.14-14.72,5.91-7.3,10.21-22.69,10.25-32.22V98.11h-34.36v3.55c10.95.27,16.69,6.53,17.76,17.2,2.25,22.57.61,65.85-8.07,86.69-13.06,31.37-52.48,36.07-57.05-1.19v-106.24h-34.36v3.5s0,.05,0,.05c1.81.04,3.47.27,5,.63,5.58,1.62,10.18,6.02,11.29,12.09.52,2.89.86,6.11,1.07,9.57,0,.06,0,.11.01.17v75.74c0,9.66,3.04,20.28,9.36,27.91h0c.78.95,1.61,1.87,2.49,2.72,1.55,1.5,3.27,2.76,5.11,3.87l.03.02c1.72,1.03,3.53,1.88,5.42,2.56,4.61,1.65,10.05,2.45,16.49,2.21,15.84-.58,29.77-11.13,36.72-24.92l6.49-15.42v62.84Z"/>
        <polygon class="cls-1" points="171.74 68.18 171.75 68.18 170.95 69.26 171.74 68.18"/>
        <path class="cls-1" d="M68.16,240.03s.02.01.04.01h6.97-7.01Z"/>
        <path class="cls-1" d="M154.85,227.45l10-30.86,2.43-7.9c36.51-32.88,61.9-73.28,62.18-73.73l.42-.68-5.41-3.37-.42.68c-.26.41-21.48,34.26-53.01,64.88L225.26,0h-74.12c-29.1,0-64.16,31.6-64.68,61.38-.2,11.21,6.19,23.17,16.2,24.76,7.07,1.12,13.61-4.8,12.86-11.91-1.11-10.48-16-12.13-15.26-28.23.86-18.7,29.68-42.8,47.69-42.8h65.35l5.65.09-44.78,60.37-18.45,24.88-10.05,13.6-6.74,9.12-41.81,56.61-6.09,8.25-18.8,25.46-1.42,1.92c-.92.43-2.08.5-3.41.31-2.57-.85-4.95-1.72-7.1-2.56-.22-.11-.44-.21-.67-.33-1.37-.72-2.78-1.53-4.18-2.4-5.94-3.69-11.76-8.36-14.53-10.99-.14-.13-.28-.26-.4-.38-5.54-5.45-10.06-11.5-13.68-18.02-1.01-1.81-1.93-3.67-2.8-5.56-1.05-2.28-2.03-4.59-2.89-6.96H0c1.46,2.94,3.09,5.81,4.86,8.61,1.38,2.19,2.87,4.33,4.45,6.43,11.04,14.65,26.2,25.7,42.73,33.41.81.38,1.64.73,2.46,1.1,2.01.9,4.04,1.76,6.09,2.56.53.21,4.99,1.86,4.99,1.86,0,0-1.88,2.58-3.03,4.14-.56.77-1.18,1.48-1.88,2.12-1.74,1.61-3.61,3.25-5.52,4.89-3.12,2.65-6.4,5.27-9.74,7.58-3.45,2.38-8.5,4.45-11.93,5.92-1.73.74-3.58,1.12-5.46,1.12h-10.21v3.64h.14s0,.04,0,.07h51.15s-.02-.01-.04-.02l-25.25-.05h34.86v-3.6c-3.43.44-11.56-.44-14.41-2.18-1.61-.98-2.33-2.95-1.74-4.74l9.44-15.92.97-1.39c9.18,2.5,19.92,4.43,31.25,4.43s26.08-1.91,35.48-5.67l-9.16,29.77h20.27l.02-.06h15.09l.75-3.55c-5.67.71-10.39-2.03-12.81-6.3l1.02-3.31ZM168.35,117.64l-25.5,82.92-.69,2.25c-20.55,10.14-47.84,8.17-65.32,3.74l.15-.21,23.29-31.53,5.69-7.7,38.33-51.9,7.68-10.4,29.78-39.35h4.53s-17.93,52.18-17.93,52.18Z"/>
      </g>
      <g>
        <polygon class="cls-1" points="785.8 288.08 774.44 276.96 758.79 293.23 774.75 307.65 784.56 296.58 796.81 307.65 811.24 291.38 796.5 276.96 785.8 288.08"/>
        <path class="cls-1" d="M857.27,72.84l-18.41,7.37c5.22,64.45,9.54,112.33,11.69,166.96l7.99-4.94c-1.23-68.75.88-112-1.27-169.39Z"/>
        <path class="cls-1" d="M878.26,51.87l-3.68-7.67c-5.52,2.46-11.97,4.3-16.57,4.3-11.97,0-17.49-8.59-25.47-8.59-7.37,0-14.24,6.49-21.3,15.7l2.78,2.17c6.14-4.91,12.17-10.13,17.91-8.11,9.82,5.53,18.41,12.02,23.63,12.02,6.14,0,15.35-3.99,22.71-9.82Z"/>
        <path class="cls-1" d="M817.5,201.03c-3.43-4.52-6.39-9.4-8.83-14.68l-2.21-5.27c-.04-.12-.09-.23-.13-.36-.05-.13-.11-.25-.17-.37l-.33-.78s-.04-.05-.03-.09l-12.89-30.78-13.81,6.75c9.27,26.31,17.52,52.75,17.71,79.1-5.52,2.78-11.7,5.31-19.24,7.94-31.01,10.82-63.14,21.03-96.16,22.99-39.16,2.33-78.33-2.55-116.42-11.51-12.11-2.85-24.19-6.22-35.52-11.44-5.17-2.38-23.23-10.63-23.33-17.8-.71-50.12-2.2-100.12-4.72-153.92l-19.03,7.36c5.59,62.59,7.87,106.79,9.63,151.03.08,2.03.15,4.04.23,6.07,1.43,1.89,2.96,3.68,4.57,5.37.54.56,1.09,1.12,1.65,1.66,13.15,12.82,31.08,21.05,48.4,26.43,41.44,12.88,86.31,15.69,129.45,15.01,25.82-.41,52.95-9.3,76.46-19.61,13.04-5.72,47.29-21.52,49.37-25.04.13-1.19.26-2.37.38-3.56.19-1.81.36-3.62.52-5.43.74-8.15.94-13.67,1.1-22.03,1.2,2.71,2.51,5.37,3.96,7.96,1.28,2.29,2.65,4.52,4.09,6.67,1.85,2.75,3.82,5.4,5.92,7.92l8.53-19.36c-1.82-1.74-3.55-3.57-5.21-5.45-1.37-1.56-2.7-3.15-3.96-4.8Z"/>
      </g>
    </g>
  </g>
</svg>