<?xml version="1.0" encoding="UTF-8"?>
<svg id="Layer_2" data-name="Layer 2" xmlns="http://www.w3.org/2000/svg" viewBox="0 0 655.05 455.08">
  <defs>
    <style>
      .cls-1 {
        fill: #171918;
      }
    </style>
  </defs>
  <g id="Layer_1-2" data-name="Layer 1">
    <g>
      <path class="cls-1" d="M99.57,350.64c-.06-.03-.12-.06-.18-.08h-36.69l36.88.08Z"/>
      <path class="cls-1" d="M629.84,322.8c-10.43-49.52,22.57-155.03-44.08-177.45-35.13-11.82-80.18-2.46-95.97,26.5-.37-6.77-.49-21.74-.47-27.98l-6.29.12.59,69.53h33.7l-.04-4.51c-.84.12-1.67.16-2.5.18-1.34-.18-2.77-.78-3.93-2.84-11.18-19.88,3.03-43.93,23.38-50.31,36.32-11.37,66.65,9.05,70.61,46.38,1.07,10.1,0,32.02,0,32.02l-120,10.3c-7.44,29.58-7.63,85.93,25.87,100.27,31.99,13.69,68.21-2.1,82.32-33.25l11.81-28.86v64.04h50.19v-5.19c-11.76,1.52-22.83-7.72-25.19-18.95ZM545.13,333.22c-42.08.66-41.58-47.66-37.1-77.92l96.81-13.93c-2.35,35.73-14.82,91.15-59.71,91.86Z"/>
      <path class="cls-1" d="M438.6,382.21s4.27,54.97-37.21,62.82c-18.52,3.22-35.83-3.49-39.19-31.92l.24-39.97.04-9.66-11.16-.05-39.03-.18-.03,5.11c2.5-.02,4.96.33,7.3,1.03,8.14,2.4,14.84,8.86,16.41,17.73.66,3.73,1.1,7.84,1.39,12.23.09,1.33.11,2.68.09,4.01l-.05,3.07c-.07,15.46,5.17,23.86,16.23,34.69,4.23,4.15,9.15,7.56,14.65,9.76,15.09,6.03,33.61,5.33,48.69-.51,12.06-4.67,22.83-11.54,30.88-21.5,8.63-10.66,14.91-33.14,14.97-47.07v-238.49h-50.19v5.18c16,.39,24.39,9.54,25.94,25.13,3.29,32.97.89,96.2-11.78,126.63-19.08,45.82-76.66,52.7-83.34-1.74v-155.2h-50.19v5.12s0,.07,0,.07c2.65.06,5.07.39,7.3.93,8.15,2.37,14.88,8.79,16.49,17.66.77,4.22,1.26,8.92,1.56,13.98,0,.09.01.17.02.25v110.64c0,14.12,4.45,29.63,13.67,40.77h0c1.14,1.39,2.35,2.73,3.64,3.98,2.27,2.19,4.78,4.03,7.47,5.65l.05.03c2.51,1.5,5.16,2.75,7.92,3.74,6.73,2.4,14.68,3.57,24.09,3.23,23.14-.84,43.49-16.25,53.64-36.4l9.49-22.53v91.79Z"/>
      <polygon class="cls-1" points="250.88 99.6 250.88 99.6 249.72 101.17 250.88 99.6"/>
      <path class="cls-1" d="M99.57,350.64s.03.01.05.02h10.18l-10.23-.02Z"/>
      <path class="cls-1" d="M226.2,332.26l14.6-45.08,3.55-11.54c53.33-48.03,90.42-107.04,90.84-107.71l.61-.99-7.91-4.92-.62.99c-.37.6-31.37,50.04-77.44,94.77L329.06,0h-108.28c-42.51,0-93.72,46.16-94.48,89.66-.29,16.38,9.04,33.84,23.66,36.17,10.32,1.64,19.88-7.01,18.79-17.4-1.62-15.31-23.37-17.72-22.29-41.24,1.25-27.32,43.36-62.52,69.67-62.52h95.47l8.25.14-65.42,88.19-26.96,36.34-14.68,19.87-9.84,13.33-61.08,82.69-8.9,12.05-27.47,37.19-2.08,2.81c-1.34.62-3.04.73-4.99.45-3.76-1.24-7.23-2.51-10.37-3.74-.33-.16-.65-.31-.97-.49-2.01-1.05-4.06-2.24-6.1-3.51-8.68-5.39-17.18-12.22-21.22-16.06-.2-.19-.4-.38-.58-.56-8.09-7.96-14.69-16.8-19.98-26.33-1.47-2.65-2.82-5.36-4.09-8.12-1.54-3.33-2.97-6.71-4.22-10.17H0c2.13,4.29,4.51,8.48,7.1,12.58,2.02,3.2,4.19,6.33,6.5,9.4,16.12,21.4,38.28,37.54,62.43,48.81,1.19.55,2.39,1.07,3.59,1.61,2.94,1.31,5.9,2.58,8.9,3.75.77.3,7.3,2.71,7.3,2.71,0,0-2.75,3.77-4.42,6.05-.82,1.12-1.73,2.16-2.75,3.1-2.54,2.35-5.27,4.75-8.07,7.14-4.55,3.88-9.34,7.7-14.23,11.07-5.05,3.48-12.42,6.49-17.43,8.65-2.53,1.08-5.23,1.64-7.98,1.64h-14.91v5.32h.2s0,.06,0,.1h74.72s-.03-.02-.05-.02l-36.88-.08h50.92v-5.26c-5.01.65-16.89-.64-21.05-3.19-2.35-1.44-3.4-4.31-2.54-6.93l13.78-23.25,1.42-2.03c13.41,3.65,29.1,6.47,45.65,6.47s38.1-2.79,51.84-8.28l-13.38,43.49h29.62l.03-.08h22.05l1.09-5.19c-8.28,1.04-15.18-2.97-18.71-9.2l1.49-4.84ZM245.93,171.85l-37.26,121.13-1.01,3.29c-30.02,14.82-69.89,11.94-95.41,5.46l.21-.31,34.02-46.06,8.31-11.25,56-75.82,11.22-15.19,43.5-57.48h6.62s-26.2,76.22-26.2,76.22Z"/>
    </g>
  </g>
</svg>